<svg version="1.2" baseProfile="tiny-ps" xmlns="http://www.w3.org/2000/svg" viewBox="0 0 1098 557" width="1098" height="557">
	<title>p2_test</title>
	<style>
		tspan { white-space:pre }
		.shp0 { opacity: 0.4;fill: #172b4d } 
		.shp1 { opacity: 0.4;fill: #6d6d6e } 
		.shp2 { opacity: 0.4;fill: #b52822 } 
		.shp3 { opacity: 0.4;fill: #0a1324 } 
	</style>
	<path id="Shape 2 copy 18" class="shp0" d="M888 23C888 17.48 892.48 13 898 13L1075 13C1080.52 13 1085 17.48 1085 23L1085 200C1085 205.52 1080.52 210 1075 210L898 210C892.48 210 888 205.52 888 200L888 23Z" />
	<path id="Shape 2 copy 9" class="shp1" d="M705 89C705 83.48 709.48 79 715 79L830 79C835.52 79 840 83.48 840 89L840 204C840 209.52 835.52 214 830 214L715 214C709.48 214 705 209.52 705 204L705 89Z" />
	<path id="Shape 2 copy 15" class="shp0" d="M773 163C773 157.48 777.48 153 783 153L845 153C850.52 153 855 157.48 855 163L855 225C855 230.52 850.52 235 845 235L783 235C777.48 235 773 230.52 773 225L773 163Z" />
	<path id="Shape 2 copy 14" class="shp0" d="M867 306C867 300.48 871.48 296 877 296L985 296C990.52 296 995 300.48 995 306L995 414C995 419.52 990.52 424 985 424L877 424C871.48 424 867 419.52 867 414L867 306Z" />
	<path id="Shape 2 copy 7" class="shp1" d="M941 194C941 188.48 945.48 184 951 184L1057 184C1062.52 184 1067 188.48 1067 194L1067 300C1067 305.52 1062.52 310 1057 310L951 310C945.48 310 941 305.52 941 300L941 194Z" />
	<path id="Shape 2 copy 10" class="shp2" d="M6 94C6 88.48 10.48 84 16 84L23 84C28.52 84 33 88.48 33 94L33 101C33 106.52 28.52 111 23 111L16 111C10.48 111 6 106.52 6 101L6 94Z" />
	<path id="Shape 2 copy 20" class="shp2" d="M820 59C820 53.48 824.48 49 830 49L898 49C903.52 49 908 53.48 908 59L908 127C908 132.52 903.52 137 898 137L830 137C824.48 137 820 132.52 820 127L820 59Z" />
	<path id="Shape 2 copy 6" class="shp3" d="M1048 10C1048 4.48 1052.48 0 1058 0L1088 0C1093.52 0 1098 4.48 1098 10L1098 40C1098 45.52 1093.52 50 1088 50L1058 50C1052.48 50 1048 45.52 1048 40L1048 10Z" />
	<path id="Shape 2 copy 21" class="shp3" d="M672 36C672 30.48 676.48 26 682 26L745 26C750.52 26 755 30.48 755 36L755 99C755 104.52 750.52 109 745 109L682 109C676.48 109 672 104.52 672 99L672 36Z" />
	<path id="Shape 2 copy 8" class="shp0" d="M865 234C865 228.48 869.48 224 875 224L909 224C914.52 224 919 228.48 919 234L919 268C919 273.52 914.52 278 909 278L875 278C869.48 278 865 273.52 865 268L865 234Z" />
	<path id="Shape 2 copy 17" class="shp2" d="M850 273C850 267.48 854.48 263 860 263L870 263C875.52 263 880 267.48 880 273L880 283C880 288.52 875.52 293 870 293L860 293C854.48 293 850 288.52 850 283L850 273Z" />
	<path id="Shape 2 copy 12" class="shp0" d="M678 200C678 194.48 682.48 190 688 190L718 190C723.52 190 728 194.48 728 200L728 230C728 235.52 723.52 240 718 240L688 240C682.48 240 678 235.52 678 230L678 200Z" />
	<path id="2" class="shp1" d="M389 68C389 62.48 393.48 58 399 58L485 58C490.52 58 495 62.48 495 68L495 154C495 159.52 490.52 164 485 164L399 164C393.48 164 389 159.52 389 154L389 68Z" />
	<path id="Shape 2" class="shp0" d="M445 118C445 112.48 449.48 108 455 108L513 108C518.52 108 523 112.48 523 118L523 176C523 181.52 518.52 186 513 186L455 186C449.48 186 445 181.52 445 176L445 118Z" />
	<path id="Shape 2 copy 13" class="shp0" d="M535 10C535 4.48 539.48 0 545 0L653 0C658.52 0 663 4.48 663 10L663 118C663 123.52 658.52 128 653 128L545 128C539.48 128 535 123.52 535 118L535 10Z" />
	<path id="Shape 2 copy 11" class="shp2" d="M966 382C966 376.48 970.48 372 976 372L1074 372C1079.52 372 1084 376.48 1084 382L1084 480C1084 485.52 1079.52 490 1074 490L976 490C970.48 490 966 485.52 966 480L966 382Z" />
	<path id="Shape 2 copy 19" class="shp2" d="M561 105C561 99.48 565.48 95 571 95L639 95C644.52 95 649 99.48 649 105L649 173C649 178.52 644.52 183 639 183L571 183C565.48 183 561 178.52 561 173L561 105Z" />
	<path id="Shape 2 copy 5" class="shp2" d="M350 25C350 19.48 354.48 15 360 15L402 15C407.52 15 412 19.48 412 25L412 67C412 72.52 407.52 77 402 77L360 77C354.48 77 350 72.52 350 67L350 25Z" />
	<path id="Shape 2 copy 4" class="shp0" d="M270 126C270 120.48 274.48 116 280 116L319 116C324.52 116 329 120.48 329 126L329 165C329 170.52 324.52 175 319 175L280 175C274.48 175 270 170.52 270 165L270 126Z" />
	<path id="1" class="shp1" d="M301 100C301 94.48 305.48 90 311 90L330 90C335.52 90 340 94.48 340 100L340 119C340 124.52 335.52 129 330 129L311 129C305.48 129 301 124.52 301 119L301 100Z" />
	<path id="Shape 2 copy 16" class="shp3" d="M71 138C71 132.48 75.48 128 81 128L120 128C125.52 128 130 132.48 130 138L130 177C130 182.52 125.52 187 120 187L81 187C75.48 187 71 182.52 71 177L71 138Z" />
	<path id="3" class="shp0" d="M182 18C182 12.48 186.48 8 192 8L279 8C284.52 8 289 12.48 289 18L289 105C289 110.52 284.52 115 279 115L192 115C186.48 115 182 110.52 182 105L182 18Z" />
	<path id="3" class="shp0" d="M97 23C97 17.48 101.48 13 107 13L120 13C125.52 13 130 17.48 130 23L130 36C130 41.52 125.52 46 120 46L107 46C101.48 46 97 41.52 97 36L97 23Z" />
	<path id="3" class="shp0" d="M30 36C30 30.48 34.48 26 40 26L75 26C80.52 26 85 30.48 85 36L85 71C85 76.52 80.52 81 75 81L40 81C34.48 81 30 76.52 30 71L30 36Z" />
	<path id="2" class="shp1" d="M9 20C9 14.48 13.48 10 19 10L30 10C35.52 10 40 14.48 40 20L40 31C40 36.52 35.52 41 30 41L19 41C13.48 41 9 36.52 9 31L9 20Z" />
	<path id="1" class="shp2" d="M106 65C106 59.48 110.48 55 116 55L184 55C189.52 55 194 59.48 194 65L194 133C194 138.52 189.52 143 184 143L116 143C110.48 143 106 138.52 106 133L106 65Z" />
</svg>