<svg version="1.2" baseProfile="tiny-ps" xmlns="http://www.w3.org/2000/svg" viewBox="0 0 90 90" width="90" height="90">
	<title>akka</title>
	<style>
		tspan { white-space:pre }
		.shp0 { fill: #0b5567 } 
		.shp1 { fill: #15a9ce } 
	</style>
	<g id="Akka">
		<path id="Layer" class="shp0" d="M21.9 74.06C39.79 54.4 57.64 45.97 75.38 50.89C96.53 56.73 88.02 88.4 74.76 77.79C54.95 61.97 21.9 74.06 21.9 74.06Z" />
		<path id="Layer" class="shp1" d="M17.43 77.57C13.4 80.82 7.6 80.49 3.94 76.83C-0.2 72.69 0.06 65.86 4.53 62.01L53.76 20.76C57.61 17.51 64.41 16.62 67.07 20.87L85.7 58.46C83.59 55.28 80.34 52.62 75.75 51.33C56.05 45.9 34.91 60.61 22.2 73.8L17.43 77.57Z" />
	</g>
</svg>