<svg version="1.2" baseProfile="tiny-ps" xmlns="http://www.w3.org/2000/svg" viewBox="0 0 90 90" width="90" height="90">
	<title>ansible</title>
	<style>
		tspan { white-space:pre }
		.shp0 { fill: #1a1918 } 
		.shp1 { fill: #ffffff } 
	</style>
	<g id="Ansible">
		<path id="Layer" class="shp0" d="M88 45.5C88 68.97 68.97 88 45.5 88C22.03 88 3 68.97 3 45.5C3 22.03 22.03 3 45.5 3C68.97 3 88 22.03 88 45.5" />
		<path id="Layer" fill-rule="evenodd" class="shp1" d="M65.75 61.36C65.94 61.86 66.04 62.32 66.04 62.61C66.04 64.41 64.59 65.65 62.94 65.65C62.11 65.65 61.47 65.33 60.59 64.61L38.66 46.89L31.31 65.3L24.95 65.3L43.52 20.65C44.01 19.47 45.04 18.85 46.22 18.85C47.39 18.85 48.35 19.47 48.84 20.65L65.75 61.36ZM46.22 27.96L40.6 42.02L57.21 55.11L46.22 27.96L46.22 27.96Z" />
	</g>
</svg>