<svg version="1.2" baseProfile="tiny-ps" xmlns="http://www.w3.org/2000/svg" viewBox="0 0 90 90" width="90" height="90">
	<title>elastic_search</title>
	<style>
		tspan { white-space:pre }
		.shp0 { fill: #ffffff } 
		.shp1 { fill: #f4bd19 } 
		.shp2 { fill: #3cbeb1 } 
		.shp3 { fill: #e9478c } 
		.shp4 { fill: #2c458f } 
		.shp5 { fill: #95c63d } 
		.shp6 { fill: #176655 } 
	</style>
	<g id="Elastic">
	</g>
	<path id="Layer" class="shp0" d="M87 46.69C87 53.69 82.47 60 76.03 62.33C76.51 63.7 76.78 65.21 76.78 66.72C76.78 73.71 71.09 79.33 64.17 79.33C61.35 79.33 58.61 78.37 56.42 76.66C51.96 82.83 44.9 86.53 37.22 86.53C24.19 86.53 13.56 75.91 13.56 62.88C13.56 61.3 13.7 59.79 13.97 58.35C7.39 55.95 3 49.78 3 42.72C3 35.72 7.46 29.41 14.04 27.15C13.56 25.78 13.29 24.27 13.29 22.76C13.29 15.77 18.98 10.15 25.9 10.15C28.71 10.15 31.39 11.04 33.58 12.75C38.04 6.51 45.17 2.88 52.78 2.88C65.88 2.88 76.51 13.51 76.51 26.6C76.51 26.98 76.5 27.36 76.48 27.74C76.47 28.12 76.44 28.5 76.41 28.87C76.37 29.25 76.33 29.63 76.28 30.01C76.23 30.38 76.17 30.76 76.1 31.13C82.61 33.53 87 39.63 87 46.69L87 46.69Z" />
	<path id="Layer" class="shp1" d="M35.85 38.81L32.21 30.99L35.37 14.67C39.27 8.91 45.79 5.48 52.78 5.48C64.44 5.48 73.9 14.95 73.9 26.6C73.9 26.95 73.89 27.3 73.88 27.65C73.86 28.01 73.84 28.36 73.8 28.7C73.77 29.05 73.72 29.4 73.67 29.75C73.62 30.1 73.56 30.44 73.49 30.79L54.57 47.38L35.85 38.81L35.85 38.81Z" />
	<path id="Layer" class="shp2" d="M16.44 58.63L34.89 41.96L53.67 50.53L57.86 58.49L54.77 74.81C50.79 80.57 44.28 84.07 37.22 84.07C25.56 84.07 16.03 74.53 16.03 62.88C16.03 61.44 16.17 60 16.44 58.63L16.44 58.63Z" />
	<path id="Layer" class="shp3" d="M16.3 26.19C15.89 25.09 15.69 23.86 15.69 22.69C15.69 17.07 20.28 12.55 25.83 12.55C28.1 12.55 30.22 13.23 32.01 14.6L29.13 29.21L16.3 26.19L16.3 26.19Z" />
	<path id="Layer" class="shp4" d="M15.21 29.28L29.33 32.57L32.62 39.63L14.59 55.95C9.1 53.89 5.47 48.61 5.47 42.72C5.47 36.68 9.45 31.13 15.21 29.28L15.21 29.28Z" />
	<path id="Layer" class="shp5" d="M58.06 74.74L60.87 60.2L73.7 63.22C74.11 64.32 74.31 65.48 74.31 66.72C74.31 72.34 69.72 76.87 64.17 76.87C61.97 76.87 59.85 76.11 58.06 74.74L58.06 74.74Z" />
	<path id="Layer" class="shp6" d="M60.67 56.84L56.9 49.64L75.41 33.46C80.9 35.59 84.53 40.8 84.53 46.69C84.53 52.73 80.55 58.21 74.79 60.13L60.67 56.84L60.67 56.84Z" />
</svg>