<svg version="1.2" baseProfile="tiny-ps" xmlns="http://www.w3.org/2000/svg" viewBox="0 0 90 90" width="90" height="90">
	<title>firebase</title>
	<style>
		tspan { white-space:pre }
		.shp0 { fill: #ffa000 } 
		.shp1 { fill: #f57f17 } 
		.shp2 { fill: #ffca28 } 
	</style>
	<g id="Firebase">
		<path id="Layer" class="shp0" d="M53.46 35.01L45.98 41.98L39.03 27.97L42.62 19.91C43.53 18.3 45.01 18.28 45.92 19.91L53.46 35.01Z" />
		<path id="Layer" class="shp1" d="M45.98 41.98L18 68L39.04 27.97L45.98 41.98Z" />
		<path id="Layer" class="shp2" d="M61.66 24.36C63 23.09 64.38 23.52 64.73 25.33L72 67.65L47.87 82.13C47.03 82.6 44.78 82.79 44.78 82.79C44.78 82.79 42.74 82.54 41.96 82.11L18 68L61.66 24.36Z" />
		<path id="Layer" class="shp0" d="M39.04 27.97L18 68L27.37 9.49C27.73 7.67 28.75 7.49 29.68 9.1L39.04 27.97Z" />
	</g>
</svg>