<svg version="1.2" baseProfile="tiny-ps" xmlns="http://www.w3.org/2000/svg" viewBox="0 0 90 90" width="90" height="90">
	<title>HazelcastLogo-svg</title>
	<style>
		tspan { white-space:pre }
		.shp0 { fill: #2f7de1 } 
		.shp1 { fill: #0b2a35 } 
	</style>
	<g id="Hazelcast">
		<path id="Layer" class="shp0" d="M81 16.13L81 41.03L47.97 41.03L47.97 8L72.87 8C77.36 8 81 11.64 81 16.13Z" />
		<path id="Layer" class="shp1" d="M81 57.9L81 82.81L47.97 82.81L47.97 57.9C47.97 53.41 51.61 49.77 56.1 49.77L72.87 49.77C77.36 49.77 81 53.41 81 57.9Z" />
		<g id="Layer">
			<path id="Layer" class="shp1" d="M38.3 82.81L18.26 82.81C13.7 82.81 10 79.11 10 74.55L10 16.26C10 11.7 13.7 8 18.26 8L38.3 8L38.3 82.81Z" />
		</g>
	</g>
</svg>