<svg version="1.2" baseProfile="tiny-ps" xmlns="http://www.w3.org/2000/svg" viewBox="0 0 90 90" width="90" height="90">
	<title>ionic</title>
	<style>
		tspan { white-space:pre }
		.shp0 { fill: #478aff } 
	</style>
	<g id="Ionic">
		<path id="Layer" fill-rule="evenodd" class="shp0" d="M79.55 29.56L79.53 29.52C81.82 34.53 83 39.99 83 45.5C83 66.76 65.77 84 44.5 84C23.25 84 6 66.76 6 45.5C6 24.24 23.24 7 44.49 7C44.53 7 44.57 7 44.59 7C50.7 7 56.74 8.47 62.15 11.29L62.86 11.66L62.24 12.18C60.69 13.42 59.46 15.02 58.68 16.83L58.47 17.36L57.99 17.13C53.76 15.12 49.16 14.08 44.48 14.08C27.1 14.08 13.01 28.17 13.01 45.56C13.01 62.94 27.09 77.04 44.47 77.04C61.86 77.04 75.95 62.94 75.95 45.56C75.95 41.43 75.13 37.31 73.54 33.48L73.33 32.95L73.86 32.77C75.71 32.08 77.37 30.93 78.68 29.45L79.21 28.83L79.55 29.56ZM44.5 27.97C54.19 27.98 62.05 35.83 62.05 45.52C62.05 55.21 54.19 63.07 44.5 63.07C34.81 63.07 26.95 55.21 26.95 45.52C26.95 35.83 34.82 27.97 44.5 27.97ZM77.69 21.53C77.69 25.95 74.12 29.53 69.7 29.53C65.29 29.53 61.71 25.96 61.71 21.53C61.71 17.12 65.29 13.54 69.7 13.54C74.11 13.54 77.69 17.12 77.69 21.53Z" />
	</g>
</svg>