<svg version="1.2" baseProfile="tiny-ps" xmlns="http://www.w3.org/2000/svg" viewBox="0 0 90 90" width="90" height="90">
	<title>java</title>
	<style>
		tspan { white-space:pre }
		.shp0 { fill: #5382a1 } 
		.shp1 { fill: #e76f00 } 
	</style>
	<g id="Java">
		<path id="Layer" class="shp0" d="M33.41 66.97C33.41 66.97 30.13 68.89 35.75 69.55C42.56 70.33 46.04 70.22 53.55 68.78C53.55 68.78 55.52 70.03 58.28 71.11C41.45 78.38 20.19 70.69 33.41 66.97ZM31.35 57.49C31.35 57.49 27.67 60.24 33.3 60.82C40.57 61.58 46.32 61.64 56.26 59.71C56.26 59.71 57.64 61.12 59.8 61.88C39.45 67.88 16.8 62.36 31.35 57.49" />
		<path id="Layer" class="shp1" d="M48.69 41.41C52.83 46.22 47.6 50.54 47.6 50.54C47.6 50.54 58.13 45.07 53.29 38.21C48.78 31.82 45.31 28.64 64.06 17.69C64.06 17.69 34.63 25.09 48.69 41.41" />
		<path id="Layer" fill-rule="evenodd" class="shp0" d="M70.94 73.98C79.84 78.03 51.61 86.16 17.3 80.55C4.72 78.5 23.36 71.32 26.77 73.74C26.77 73.74 25.69 73.67 23.8 74.08C21.99 74.47 16.24 76.34 19.31 77.68C27.84 81.42 58.55 80.53 68.26 77.56C73.37 76 70.94 73.98 70.94 73.98ZM29.46 52.76C33.72 53.34 42.21 53.21 50.12 52.54C56.59 51.99 63.08 50.82 63.08 50.82C63.08 50.82 60.8 51.8 59.15 52.94C43.29 57.14 12.64 55.19 21.46 50.89C28.92 47.25 34.99 47.67 34.99 47.67C34.99 47.67 19.37 51.4 29.46 52.76ZM63.01 63.45C79.14 55 71.68 46.89 66.48 47.98C65.2 48.25 64.63 48.48 64.63 48.48C64.63 48.48 65.11 47.74 66.01 47.41C76.31 43.77 84.23 58.17 62.69 63.87C62.69 63.87 62.94 63.65 63.01 63.45Z" />
		<path id="Layer" class="shp1" d="M53.29 0C53.29 0 62.22 9 44.82 22.84C30.87 33.94 41.64 40.27 44.81 47.51C36.67 40.1 30.69 33.59 34.7 27.52C40.59 18.61 56.89 14.3 53.29 0" />
		<path id="Layer" class="shp0" d="M36.57 86.32C52.05 87.32 75.82 85.77 76.39 78.39C76.39 78.39 75.3 81.19 63.59 83.41C50.38 85.91 34.09 85.62 24.42 84.02C24.42 84.02 26.4 85.67 36.57 86.32" />
	</g>
</svg>