<svg version="1.2" baseProfile="tiny-ps" xmlns="http://www.w3.org/2000/svg" viewBox="0 0 90 90" width="90" height="90">
	<title>kafka</title>
	<style>
		tspan { white-space:pre }
		.shp0 { fill: #000000 } 
	</style>
	<g id="Kafka">
		<path id="Kafka" fill-rule="evenodd" class="shp0" d="M60.21 49.86C66.16 49.86 71 54.71 71 60.66C71 66.61 66.16 71.45 60.21 71.45C54.25 71.45 49.41 66.61 49.41 60.66C49.41 59.6 49.57 58.59 49.85 57.62L44.75 54.01C44.22 54.66 43.63 55.26 43 55.8C42.36 56.34 41.68 56.83 40.95 57.25C40.23 57.67 39.47 58.02 38.68 58.31C37.9 58.59 37.09 58.8 36.26 58.94L36.26 65.47C41.1 66.54 44.74 70.85 44.74 76.01C44.74 81.96 39.89 86.8 33.94 86.8C27.99 86.8 23.15 81.96 23.15 76.01C23.15 70.85 26.78 66.54 31.63 65.47L31.63 58.94C25.04 57.83 20 52.11 20 45.21C20 38.35 24.99 32.64 31.53 31.49L31.53 25.31C26.74 24.21 23.15 19.92 23.15 14.79C23.15 8.84 27.99 4 33.94 4C39.89 4 44.74 8.84 44.74 14.79C44.74 19.99 41.05 24.33 36.16 25.36L36.16 31.46C39.63 32.02 42.68 33.85 44.8 36.48L49.86 32.92C49.57 31.95 49.41 30.92 49.41 29.86C49.41 23.9 54.25 19.06 60.21 19.06C66.16 19.06 71 23.9 71 29.86C71 35.81 66.16 40.65 60.21 40.65C56.99 40.65 54.11 39.23 52.13 36.99L47.07 40.55C47.59 42.01 47.89 43.57 47.89 45.21C47.89 46.88 47.58 48.47 47.04 49.95L52.11 53.54C54.09 51.29 56.98 49.86 60.21 49.86ZM60.21 24.62C57.32 24.62 54.97 26.97 54.97 29.86C54.97 32.74 57.32 35.09 60.21 35.09C63.09 35.09 65.44 32.74 65.44 29.86C65.44 26.97 63.09 24.62 60.21 24.62ZM33.94 20.03C36.83 20.03 39.18 17.68 39.18 14.79C39.18 11.91 36.83 9.56 33.94 9.56C31.06 9.56 28.71 11.91 28.71 14.79C28.71 17.68 31.06 20.03 33.94 20.03ZM33.94 70.78C31.06 70.78 28.71 73.12 28.71 76.01C28.71 78.9 31.06 81.24 33.94 81.24C36.83 81.24 39.18 78.9 39.18 76.01C39.18 73.12 36.83 70.78 33.94 70.78ZM41.24 45.21C41.24 41.18 37.97 37.91 33.94 37.91C29.92 37.91 26.64 41.18 26.64 45.21C26.64 49.23 29.92 52.51 33.94 52.51C37.97 52.51 41.24 49.23 41.24 45.21ZM65.44 60.66C65.44 57.77 63.09 55.42 60.21 55.42C57.32 55.42 54.97 57.77 54.97 60.66C54.97 63.54 57.32 65.89 60.21 65.89C63.09 65.89 65.44 63.54 65.44 60.66Z" />
	</g>
</svg>