<svg version="1.2" baseProfile="tiny-ps" xmlns="http://www.w3.org/2000/svg" viewBox="0 0 90 90" width="90" height="90">
	<title>mongo</title>
	<style>
		tspan { white-space:pre }
		.shp0 { fill: #599636 } 
		.shp1 { fill: #6cac48 } 
		.shp2 { fill: #c2bfbf } 
	</style>
	<g id="MongoDB">
		<path id="Layer" class="shp0" d="M44.24 4.22L46.44 8.35C46.93 9.12 47.47 9.79 48.1 10.42C48.56 10.87 49.02 11.34 49.46 11.81C49.91 12.28 50.35 12.76 50.78 13.25C51.21 13.73 51.63 14.23 52.04 14.73C52.46 15.23 52.86 15.74 53.26 16.25C56.98 21.14 59.5 26.57 61.29 32.45C62.37 36.03 62.95 39.72 62.99 43.44C63.17 54.57 59.36 64.12 51.67 72.06C51.36 72.38 51.04 72.68 50.71 72.99C50.39 73.29 50.06 73.58 49.72 73.87C49.38 74.16 49.04 74.44 48.69 74.71C48.34 74.99 47.99 75.26 47.63 75.52C46.87 75.52 46.5 74.93 46.19 74.39C46.05 74.14 45.92 73.89 45.8 73.63C45.68 73.37 45.57 73.1 45.48 72.83C45.38 72.56 45.3 72.28 45.23 72.01C45.17 71.73 45.11 71.45 45.07 71.16C44.8 69.82 44.62 68.47 44.71 67.08L44.71 66.45C44.65 66.32 43.97 4.54 44.24 4.22L44.24 4.22Z" />
		<path id="Layer" class="shp1" d="M44.24 4.09C44.15 3.91 44.06 4.04 43.97 4.13C44.02 5.03 43.7 5.84 43.21 6.6C42.67 7.37 41.95 7.95 41.24 8.58C37.25 12.03 34.11 16.2 31.59 20.87C28.24 27.15 26.52 33.88 26.03 40.97C25.81 43.53 26.84 52.54 27.64 55.15C29.84 62.06 33.79 67.84 38.91 72.87C40.16 74.08 41.51 75.2 42.9 76.28C43.3 76.28 43.34 75.92 43.44 75.65C43.48 75.51 43.52 75.36 43.56 75.22C43.6 75.08 43.64 74.93 43.67 74.78C43.7 74.64 43.74 74.49 43.76 74.34C43.79 74.2 43.82 74.05 43.84 73.9L44.74 67.17L44.24 4.09Z" />
		<path id="Layer" class="shp2" d="M46.44 78.25C46.53 77.22 47.02 76.36 47.56 75.51C47.02 75.29 46.62 74.84 46.31 74.35C46.24 74.23 46.17 74.11 46.11 73.99C46.05 73.87 45.99 73.75 45.94 73.62C45.88 73.5 45.83 73.37 45.78 73.25C45.73 73.12 45.68 73 45.64 72.87C45.01 70.98 44.88 69.01 44.7 67.08L44.7 65.91C44.47 66.09 44.42 67.62 44.42 67.84C44.39 68.35 44.35 68.86 44.3 69.37C44.25 69.88 44.19 70.38 44.12 70.89C44.06 71.39 43.98 71.9 43.9 72.4C43.81 72.9 43.72 73.4 43.62 73.9C43.48 74.71 43.39 75.52 42.9 76.23C42.9 76.32 42.9 76.41 42.94 76.55C43.75 78.93 43.97 81.35 44.11 83.82L44.11 84.72C44.11 85.79 44.06 85.57 44.96 85.93C45.32 86.06 45.72 86.11 46.08 86.38C46.35 86.38 46.39 86.15 46.39 85.97L46.26 84.49L46.26 80.36C46.21 79.64 46.35 78.93 46.44 78.25L46.44 78.25Z" />
	</g>
</svg>