<svg version="1.2" baseProfile="tiny-ps" xmlns="http://www.w3.org/2000/svg" viewBox="0 0 90 90" width="90" height="90">
	<title>oracle</title>
	<style>
		tspan { white-space:pre }
		.shp0 { fill: #c74634 } 
	</style>
	<path id="Oracle" fill-rule="evenodd" class="shp0" d="M38.64 46.35L44.38 46.35L41.35 41.46L35.78 50.3L33.24 50.3L40.02 39.69C40.17 39.48 40.36 39.31 40.59 39.19C40.82 39.07 41.07 39 41.33 39C41.59 39 41.84 39.06 42.07 39.18C42.3 39.29 42.5 39.46 42.65 39.67L49.45 50.3L46.92 50.3L45.72 48.32L39.92 48.32L38.65 46.35M64.97 48.33L75 48.33L73.72 50.31L63.93 50.31C63.86 50.31 63.79 50.3 63.71 50.29C63.64 50.27 63.57 50.25 63.51 50.22C63.44 50.2 63.37 50.16 63.31 50.12C63.25 50.08 63.2 50.03 63.15 49.98C63.1 49.93 63.05 49.88 63.01 49.82C62.97 49.76 62.94 49.7 62.91 49.64C62.88 49.57 62.86 49.51 62.85 49.44C62.83 49.37 62.83 49.3 62.83 49.23L62.83 39.11L64.98 39.11L64.98 48.32L64.97 48.33ZM28.41 46.67L32.72 50.3L29.6 50.3L23.18 44.71L29.24 44.71C29.72 44.71 30.18 44.52 30.52 44.18C30.86 43.84 31.05 43.38 31.05 42.9C31.05 42.42 30.86 41.96 30.52 41.62C30.18 41.28 29.72 41.09 29.24 41.09L22.11 41.09L22.11 50.3L19.96 50.3L19.96 39.11L29.38 39.13C30.37 39.13 31.33 39.52 32.04 40.23C32.74 40.93 33.14 41.89 33.14 42.89C33.14 43.89 32.74 44.85 32.04 45.55C31.33 46.26 30.37 46.66 29.38 46.67L28.41 46.67ZM6.74 50.3C5.23 50.34 3.77 49.76 2.69 48.71C1.61 47.66 1 46.21 1 44.7C1 43.19 1.61 41.75 2.69 40.7C3.77 39.64 5.23 39.07 6.74 39.11L13.24 39.11C14.7 39.15 16.09 39.75 17.1 40.8C18.12 41.84 18.69 43.25 18.69 44.7C18.69 46.16 18.12 47.56 17.1 48.61C16.09 49.65 14.7 50.26 13.24 50.3L6.74 50.3ZM13.1 48.33C14.08 48.36 15.03 47.99 15.73 47.31C16.44 46.63 16.83 45.69 16.83 44.71C16.83 43.73 16.44 42.79 15.73 42.11C15.03 41.42 14.08 41.06 13.1 41.09L6.88 41.09C5.94 41.12 5.05 41.51 4.4 42.19C3.74 42.86 3.38 43.77 3.38 44.71C3.38 45.65 3.74 46.55 4.4 47.23C5.05 47.9 5.94 48.3 6.88 48.33L13.1 48.33ZM53.94 50.3C52.43 50.34 50.97 49.76 49.89 48.71C48.81 47.66 48.2 46.21 48.2 44.7C48.2 43.19 48.81 41.75 49.89 40.7C50.97 39.64 52.43 39.07 53.94 39.11L61.67 39.11L60.39 41.09L54.09 41.09C53.11 41.06 52.16 41.42 51.45 42.11C50.75 42.79 50.35 43.73 50.35 44.71C50.35 45.69 50.75 46.63 51.45 47.31C52.16 47.99 53.11 48.36 54.09 48.33L61.84 48.33L60.58 50.3L53.94 50.3ZM80.24 48.32L88 48.32L86.74 50.29L80.1 50.29C78.64 50.26 77.26 49.65 76.24 48.6C75.22 47.56 74.65 46.16 74.65 44.7C74.65 43.24 75.22 41.84 76.24 40.8C77.26 39.75 78.64 39.14 80.1 39.11L87.82 39.11L86.56 41.08L80.25 41.08C79.86 41.08 79.47 41.15 79.09 41.27C78.72 41.4 78.37 41.58 78.06 41.82C77.75 42.05 77.48 42.34 77.26 42.66C77.03 42.98 76.87 43.34 76.76 43.72L87.22 43.72L85.96 45.69L76.76 45.69C76.87 46.07 77.04 46.43 77.26 46.75C77.48 47.07 77.75 47.36 78.06 47.59C78.37 47.83 78.72 48.02 79.1 48.14C79.47 48.26 79.86 48.33 80.25 48.33L80.24 48.32Z" />
</svg>