<svg version="1.2" baseProfile="tiny-ps" xmlns="http://www.w3.org/2000/svg" viewBox="0 0 90 90" width="90" height="90">
	<title>react</title>
	<style>
		tspan { white-space:pre }
		.shp0 { fill: #61dafb } 
	</style>
	<g id="React">
		<path id="Layer" fill-rule="evenodd" class="shp0" d="M88 45.3C88 50.98 80.9 56.38 70.03 59.73C72.57 70.84 71.47 79.7 66.54 82.53C65.39 83.2 64.05 83.52 62.58 83.52C57.76 83.52 51.45 80.12 45.07 74.19C38.69 80.15 32.38 83.59 27.56 83.59C26.09 83.59 24.75 83.27 23.61 82.6C18.67 79.77 17.55 70.9 20.07 59.75C9.13 56.4 2 51 2 45.3C2 39.62 9.1 34.24 20 30.88C17.46 19.76 18.57 10.91 23.49 8.07C24.65 7.4 25.98 7.09 27.45 7.09L27.45 7.07C32.27 7.07 38.58 10.47 44.96 16.4C51.35 10.44 57.66 7 62.48 7L62.48 7.02C63.93 7.02 65.25 7.34 66.39 8C71.33 10.84 72.45 19.71 69.93 30.86C80.87 34.21 88 39.6 88 45.3ZM62.46 7.02L62.46 10.91C62.47 10.91 62.47 10.91 62.48 10.91L62.48 7.02C62.47 7.02 62.47 7.02 62.46 7.02ZM62.46 10.91C58.81 10.92 53.46 13.83 47.75 19.13C50.22 21.71 52.68 24.65 55.04 27.9C58.99 28.32 62.74 28.96 66.18 29.81C66.56 28.04 66.88 26.3 67.07 24.65C67.88 17.96 66.84 12.75 64.46 11.38C63.91 11.08 63.27 10.93 62.46 10.93L62.46 10.91ZM27.45 10.98L27.45 11C26.65 11 25.96 11.14 25.44 11.45C23.07 12.84 22.05 18.04 22.88 24.74C23.09 26.37 23.39 28.07 23.79 29.82C27.23 28.96 30.98 28.32 34.94 27.9C37.27 24.65 39.72 21.72 42.18 19.15C36.46 13.87 31.08 10.98 27.45 10.98ZM57.99 32.23C58.85 33.56 59.71 34.92 60.51 36.33C61.34 37.73 62.09 39.13 62.81 40.53C63.72 38.2 64.53 35.87 65.18 33.61C62.88 33.05 60.48 32.59 57.99 32.23ZM60.78 45.28C59.67 42.94 58.46 40.6 57.13 38.31C55.76 35.96 54.34 33.73 52.89 31.65C50.29 31.44 47.65 31.31 45 31.31C42.34 31.31 39.69 31.44 37.08 31.66C35.62 33.75 34.22 35.99 32.85 38.36C31.54 40.66 30.31 43.01 29.22 45.35C30.33 47.7 31.54 50.04 32.87 52.33C34.24 54.68 35.66 56.91 37.11 58.99C39.71 59.2 42.35 59.33 45 59.33C47.66 59.33 50.31 59.2 52.92 58.98C54.38 56.89 55.78 54.65 57.15 52.28C58.46 49.98 59.67 47.63 60.78 45.28ZM60.53 54.22C59.72 55.64 58.87 57.03 58.01 58.38C60.51 58.01 62.93 57.54 65.23 56.98C64.56 54.7 63.76 52.35 62.81 50C62.09 51.4 61.34 52.82 60.53 54.22ZM49.86 63.09C48.26 63.18 46.63 63.22 44.98 63.22C43.35 63.22 41.74 63.16 40.16 63.09C41.77 65.15 43.4 67.02 45.04 68.7C46.65 67.02 48.28 65.15 49.86 63.09ZM29.47 54.28C28.64 52.87 27.89 51.47 27.17 50.07C26.26 52.4 25.45 54.73 24.81 56.99C27.1 57.56 29.5 58.01 31.99 58.38C31.13 57.05 30.29 55.68 29.47 54.28ZM40.13 27.51C41.72 27.42 43.35 27.39 45 27.39C46.63 27.39 48.24 27.44 49.82 27.51C48.21 25.46 46.58 23.58 44.95 21.9C43.33 23.58 41.7 25.46 40.13 27.51ZM31.98 32.23C29.47 32.59 27.05 33.07 24.75 33.61C25.42 35.89 26.23 38.24 27.17 40.59C27.89 39.18 28.64 37.78 29.45 36.38C30.26 34.96 31.12 33.57 31.98 32.23ZM21.02 55.96C22 52.54 23.3 48.98 24.91 45.34C23.28 41.67 21.97 38.1 20.97 34.66C19.27 35.21 17.62 35.78 16.11 36.43C9.91 39.06 5.89 42.55 5.89 45.3C5.89 48.05 9.91 51.53 16.11 54.17C17.64 54.82 19.28 55.42 21.02 55.96ZM25.54 79.22C26.07 79.52 26.73 79.68 27.52 79.7C31.17 79.7 36.53 76.79 42.25 71.47C39.78 68.9 37.32 65.95 34.96 62.71C31.01 62.29 27.26 61.64 23.82 60.8C23.44 62.57 23.12 64.3 22.93 65.95C22.12 72.65 23.16 77.85 25.54 79.22ZM67.12 65.86C66.93 64.23 66.61 62.53 66.21 60.76C62.77 61.62 59.02 62.27 55.06 62.69C52.73 65.93 50.28 68.86 47.82 71.44C53.54 76.72 58.92 79.61 62.55 79.61C63.35 79.61 64.04 79.47 64.56 79.15C66.93 77.77 67.95 72.56 67.12 65.86ZM73.87 54.17C80.08 51.54 84.09 48.05 84.11 45.3C84.11 42.55 80.09 39.08 73.89 36.43C72.35 35.78 70.7 35.19 68.96 34.64C67.98 38.06 66.68 41.62 65.07 45.27C66.7 48.93 68.02 52.51 69.02 55.94C70.72 55.4 72.36 54.82 73.87 54.17Z" />
		<path id="Layer" class="shp0" d="M44.98 53.31C40.55 53.31 36.97 49.73 36.97 45.3C36.97 40.87 40.55 37.29 44.98 37.29C49.41 37.29 52.99 40.87 52.99 45.3C52.99 49.73 49.41 53.31 44.98 53.31Z" />
	</g>
</svg>