<svg version="1.2" baseProfile="tiny-ps" xmlns="http://www.w3.org/2000/svg" viewBox="0 0 90 90" width="90" height="90">
	<title>spring</title>
	<style>
		tspan { white-space:pre }
		.shp0 { fill: #77bc1f } 
	</style>
	<g id="Spring">
		<path id="Layer" fill-rule="evenodd" class="shp0" d="M82.79 49.06C81.39 68.65 64.91 84.03 45.29 84.03C36.43 84.03 27.85 80.88 21.07 75.17L19.68 73.94C12.22 66.82 8 56.96 8 46.65C8 26 24.98 9 45.61 9C55.58 9 65.15 12.97 72.2 20.02C73.81 17.82 75.15 15.43 76.21 12.91C81 27.33 83.82 39.47 82.79 49.06ZM24.55 69.62C23.98 69.15 23.26 68.9 22.52 68.9C20.77 68.9 19.31 70.35 19.31 72.12C19.31 73.89 20.76 75.34 22.52 75.34C23.49 75.34 24.42 74.9 25.03 74.15C26.14 72.77 25.92 70.73 24.55 69.62ZM76.05 62.88C85.49 50.3 80.22 29.94 75.85 16.94C71.94 25.07 62.34 31.3 54.03 33.27C46.26 35.13 39.37 33.6 32.17 36.38C15.74 42.71 16.01 62.31 25.05 66.72L25.59 67C25.59 67 38.88 64.36 46.23 61.65C56.97 57.67 68.75 47.89 72.63 36.52C70.53 48.34 60.44 59.71 50.24 64.91C44.81 67.69 40.59 68.3 31.68 71.41C30.57 71.83 29.72 72.19 29.72 72.19C31.99 71.82 34.25 71.68 34.25 71.68C46.95 71.08 66.77 75.25 76.05 62.88Z" />
	</g>
</svg>