<svg version="1.2" baseProfile="tiny-ps" xmlns="http://www.w3.org/2000/svg" viewBox="0 0 90 90" width="90" height="90">
	<title>spring_boot</title>
	<style>
		tspan { white-space:pre }
		.shp0 { fill: #6db33f } 
	</style>
	<g id="SPring Boot">
		<path id="SPring Boot" fill-rule="evenodd" class="shp0" d="M86.89 49.73L69.76 79.41C68.26 81.99 64.61 84.1 61.64 84.1L27.36 84.1C24.38 84.1 20.73 81.99 19.24 79.41L2.11 49.73C0.63 47.15 0.63 42.94 2.11 40.36L19.24 10.69C20.73 8.12 24.39 6 27.36 6L61.62 6C64.61 6 68.26 8.12 69.74 10.69L86.89 40.36C88.37 42.94 88.37 47.15 86.89 49.73ZM40.79 43.52C40.79 45.46 42.38 47.05 44.32 47.05C46.27 47.05 47.85 45.46 47.85 43.52L47.85 22.41C47.85 20.47 46.27 18.88 44.32 18.88C42.38 18.88 40.79 20.47 40.79 22.41L40.79 43.52ZM68.27 43.52C68.26 35.91 64.66 28.74 58.53 24.22C57.13 23.2 55.15 23.49 54.13 24.89C53.11 26.29 53.4 28.26 54.8 29.29C59.32 32.63 61.98 37.9 62 43.52C62 49.11 59.35 54.38 54.86 57.71C47.03 63.53 35.96 61.89 30.14 54.06C24.33 46.23 25.96 35.16 33.79 29.34C35.19 28.3 35.48 26.34 34.44 24.94C33.4 23.54 31.44 23.25 30.04 24.29C23.97 28.83 20.38 35.94 20.37 43.52C20.37 56.72 31.12 67.47 44.32 67.47C57.53 67.47 68.27 56.74 68.27 43.52Z" />
	</g>
</svg>