<svg version="1.2" baseProfile="tiny-ps" xmlns="http://www.w3.org/2000/svg" viewBox="0 0 90 90" width="90" height="90">
	<title>typescript</title>
	<style>
		tspan { white-space:pre }
		.shp0 { fill: #3178c6 } 
		.shp1 { fill: #ffffff } 
	</style>
	<g id="Typescript">
		<path id="Layer" class="shp0" d="M5 12.81C5 8.5 8.5 5 12.81 5L77.19 5C81.5 5 85 8.5 85 12.81L85 77.19C85 81.5 81.5 85 77.19 85L12.81 85C8.5 85 5 81.5 5 77.19L5 12.81Z" />
		<path id="Layer" fill-rule="evenodd" class="shp1" d="M54.53 68.59L54.53 68.9C54.43 68.82 54.33 68.74 54.23 68.66L54.53 68.59ZM54.53 68.9C55.86 69.96 57.32 70.77 58.92 71.32C60.48 71.91 62.2 72.21 63.92 72.21C65.02 72.21 65.84 72.12 66.58 71.94C67.34 71.76 67.95 71.51 68.45 71.19C68.95 70.88 69.33 70.51 69.56 70.07C69.8 69.63 69.92 69.16 69.92 68.66C69.92 67.94 69.72 67.32 69.33 66.79C68.97 66.26 68.44 65.76 67.77 65.3C67.14 64.85 66.36 64.41 65.42 63.99C64.48 63.57 63.53 63.13 62.45 62.69C59.8 61.44 57.7 60.19 56.36 58.47C55 56.91 54.33 54.88 54.33 52.54C54.33 50.66 54.69 49.16 55.42 47.85C56.2 46.44 57.12 45.41 58.39 44.57C59.64 43.71 61.05 43.08 62.77 42.69C64.48 42.3 66.2 42.1 68.08 42.1C69.95 42.1 71.52 42.21 72.92 42.43C74.33 42.65 75.64 42.99 76.83 43.44L76.83 50.79C76.28 50.38 75.64 50.02 74.95 49.71C74.22 49.4 73.5 49.15 72.77 48.94C72.03 48.74 71.3 48.59 70.58 48.49C69.89 48.39 69.2 48.34 68.55 48.34C67.59 48.34 66.78 48.42 66.05 48.59C65.3 48.77 64.67 49 64.17 49.31C63.67 49.62 63.28 49.98 63 50.42C62.72 50.86 62.58 51.34 62.58 51.88C62.58 52.45 62.73 52.97 63.05 53.44C63.36 53.89 63.8 54.33 64.37 54.75C64.89 55.16 65.59 55.56 66.41 55.97C67.34 56.37 68.19 56.78 69.22 57.2C70.63 57.8 71.88 58.45 72.97 59.08C74.06 59.7 74.98 60.44 75.78 61.27C76.63 62.05 77.23 62.98 77.66 64.08C78.08 65.17 78.3 66.41 78.3 67.83C78.3 69.86 77.81 71.42 77.19 72.83C76.56 74.23 75.48 75.28 74.22 76.11C72.97 76.88 71.56 77.47 69.84 77.83C68.12 78.19 66.41 78.36 64.53 78.36C62.66 78.36 60.78 78.2 59.06 77.87C57.34 77.55 55.8 77.06 54.53 76.41L54.53 68.9ZM41.41 77.97L33.44 77.97L33.44 49.38L23.44 49.38L23.44 42.97L51.41 42.97L51.41 49.38L41.41 49.38L41.41 77.97Z" />
	</g>
</svg>